<svg width="40" height="46" viewBox="0 0 40 46" fill="none" xmlns="http://www.w3.org/2000/svg">
    <path d="M3.64014 40.8297L0 0H40L36.3559 40.8233L19.9755 45.3645L3.64014 40.8297Z" fill="#E44D26"/>
    <path d="M20 41.8947L33.2362 38.2252L36.3503 3.33984H20V41.8947Z" fill="#F16529"/>
    <path d="M19.9981 18.4832H13.3717L12.9141 13.3553H19.9981V8.34766H7.44141L7.56127 9.69113L8.79204 23.4907H19.9981V18.4832ZM19.9981 31.4884L19.9762 31.4943L14.3991 29.9884L14.0426 25.9946H9.01579L9.71735 33.8572L19.975 36.7048L19.9981 36.6984V31.4884Z" fill="#EBEBEB"/>
    <path d="M19.9805 18.4832V23.4907H26.1467L25.5654 29.9852L19.9805 31.4926V36.7024L30.2462 33.8572L30.3215 33.0112L31.4983 19.8278L31.6204 18.4832H30.271H19.9805ZM19.9805 8.34766V13.3553H32.0761L32.1765 12.2297L32.4047 9.69112L32.5245 8.34766H19.9805Z" fill="white"/>
    </svg>
    