<svg width="50" height="53" viewBox="0 0 50 53" fill="none" xmlns="http://www.w3.org/2000/svg">
    <path d="M29.2992 26.1828C29.2992 28.5576 27.374 30.4828 24.9992 30.4828C22.6244 30.4828 20.6992 28.5576 20.6992 26.1828C20.6992 23.808 22.6244 21.8828 24.9992 21.8828C27.374 21.8828 29.2992 23.808 29.2992 26.1828Z" fill="#58C4DC" stroke="#58C4DC"/>
    <path d="M25 36.9828C38.2548 36.9828 49 32.1475 49 26.1828C49 20.2181 38.2548 15.3828 25 15.3828C11.7452 15.3828 1 20.2181 1 26.1828C1 32.1475 11.7452 36.9828 25 36.9828Z" stroke="#58C4DC" stroke-width="2"/>
    <path d="M15.6454 31.5846C22.2728 43.0636 31.8329 49.9516 36.9985 46.9692C42.164 43.9869 40.979 32.2636 34.3516 20.7846C27.7241 9.30559 18.164 2.41766 12.9985 5.4C7.83292 8.38234 9.01799 20.1056 15.6454 31.5846Z" stroke="#58C4DC" stroke-width="2"/>
    <path d="M15.6454 20.7854C9.01799 32.2644 7.83292 43.9877 12.9985 46.97C18.164 49.9523 27.7241 43.0644 34.3516 31.5854C40.979 20.1064 42.164 8.38312 36.9985 5.40078C31.8329 2.41844 22.2728 9.30636 15.6454 20.7854Z" stroke="#58C4DC" stroke-width="2"/>
    </svg>
    