<svg width="48" height="36" viewBox="0 0 48 36" fill="none" xmlns="http://www.w3.org/2000/svg">
    <path d="M41.3207 20.6605C39.6424 20.6699 38.1892 21.073 36.9703 21.6731C36.5203 20.7824 36.0702 20.0042 35.9952 19.4229C35.9109 18.7478 35.8077 18.3353 35.9109 17.529C36.014 16.7227 36.4828 15.5788 36.4828 15.485C36.4734 15.4007 36.3796 14.9881 35.4139 14.9788C34.4482 14.9694 33.6138 15.1663 33.52 15.4194C33.4263 15.6726 33.2387 16.2539 33.1169 16.8539C32.9481 17.7352 31.1854 20.8574 30.1822 22.4982C29.8541 21.8606 29.5728 21.2981 29.5165 20.848C29.4322 20.173 29.329 19.7604 29.4322 18.9541C29.5353 18.1478 30.0041 17.0039 30.0041 16.9102C29.9947 16.8258 29.901 16.4133 28.9352 16.4039C27.9695 16.3945 27.1351 16.5914 27.0413 16.8445C26.9476 17.0977 26.8444 17.6977 26.6382 18.279C26.4413 18.8603 24.0973 24.0733 23.4879 25.4328C23.1785 26.1266 22.9066 26.6798 22.7097 27.0548C22.5128 27.4298 22.7003 27.0829 22.6816 27.1204C22.5128 27.4392 22.4191 27.6174 22.4191 27.6174V27.6267C22.2878 27.8611 22.1472 28.0861 22.0815 28.0861C22.0346 28.0861 21.9409 27.458 22.1003 26.5954C22.4472 24.7859 23.291 21.9637 23.2816 21.8606C23.2816 21.8137 23.441 21.3168 22.7378 21.0637C22.0534 20.8105 21.8096 21.2324 21.7534 21.2324C21.6971 21.2324 21.6502 21.3824 21.6502 21.3824C21.6502 21.3824 22.4097 18.204 20.197 18.204C18.8094 18.204 16.8967 19.7135 15.9497 21.0918C15.3497 21.4199 14.0746 22.1137 12.7245 22.8544C12.2088 23.1357 11.6744 23.4357 11.1681 23.7076L11.0649 23.5951C8.38345 20.7355 3.42364 18.7103 3.62991 14.8662C3.70492 13.4692 4.19246 9.78455 13.1557 5.32166C20.497 1.66509 26.3756 2.6683 27.3976 4.89975C28.8509 8.08752 24.2567 14.013 16.6248 14.8662C13.7183 15.1944 12.19 14.0693 11.8056 13.6474C11.4025 13.2067 11.3462 13.188 11.1962 13.2724C10.9524 13.4036 11.1024 13.7974 11.1962 14.0318C11.4212 14.6225 12.3588 15.6726 13.9527 16.1976C15.3497 16.657 18.7625 16.9102 22.8878 15.3163C27.5101 13.5255 31.1198 8.55632 30.0603 4.40283C28.9821 0.174333 21.969 -1.21329 15.3403 1.14004C11.3931 2.54642 7.11772 4.74036 4.04245 7.61873C0.385877 11.0315 -0.195423 14.013 0.0483478 15.2506C0.901547 19.6667 6.98645 22.545 9.42417 24.6733C9.30228 24.739 9.18977 24.8046 9.08664 24.8609C7.86778 25.4609 3.22675 27.8893 2.06415 30.4582C0.751534 33.3647 2.27042 35.4555 3.28301 35.7368C6.41453 36.6088 9.62106 35.043 11.3556 32.4647C13.0807 29.8863 12.8745 26.5391 12.0775 25.0109L12.0494 24.9546L13.0057 24.3921C13.6245 24.0264 14.234 23.6889 14.7684 23.3982C14.4684 24.2139 14.2527 25.1796 14.1402 26.586C14.0089 28.2362 14.684 30.3738 15.5747 31.2177C15.9685 31.5833 16.4373 31.5927 16.7279 31.5927C17.7593 31.5927 18.2281 30.7395 18.7437 29.7175C19.3813 28.4706 19.9438 27.0267 19.9438 27.0267C19.9438 27.0267 19.2406 30.9364 21.1627 30.9364C21.8659 30.9364 22.5691 30.0269 22.8878 29.5582V29.5675C22.8878 29.5675 22.9066 29.5394 22.9441 29.4738C23.0191 29.3613 23.0566 29.2956 23.0566 29.2956V29.2769C23.3379 28.7893 23.9661 27.6736 24.9036 25.8266C26.1131 23.4451 27.2757 20.4636 27.2757 20.4636C27.2757 20.4636 27.3882 21.1949 27.7351 22.395C27.9414 23.1076 28.3914 23.8858 28.7384 24.6452C28.4571 25.039 28.2883 25.264 28.2883 25.264L28.2977 25.2734C28.0727 25.5734 27.8195 25.8922 27.557 26.211C26.6007 27.3548 25.4568 28.6581 25.3068 29.0331C25.1287 29.4738 25.1662 29.8019 25.5131 30.0644C25.7662 30.252 26.2163 30.2895 26.6944 30.252C27.557 30.1957 28.1571 29.9801 28.4571 29.8488C28.9259 29.68 29.4603 29.4269 29.976 29.0519C30.9135 28.358 31.4855 27.3736 31.4292 26.061C31.4011 25.339 31.1667 24.6265 30.876 23.9514C30.9604 23.8295 31.0448 23.7076 31.1292 23.5764C32.6106 21.4106 33.7544 19.0291 33.7544 19.0291C33.7544 19.0291 33.8669 19.7604 34.2138 20.9605C34.392 21.57 34.7483 22.2356 35.067 22.8919C33.6794 24.0264 32.8075 25.339 32.5074 26.2016C31.9543 27.7955 32.3855 28.5174 33.2012 28.6862C33.5669 28.7612 34.0919 28.5924 34.4857 28.4237C34.9733 28.2643 35.5639 27.9924 36.1077 27.5892C37.0453 26.8954 37.9454 25.9297 37.8985 24.6265C37.8704 24.0264 37.711 23.4357 37.4954 22.8732C38.6767 22.3856 40.205 22.1044 42.1458 22.3388C46.318 22.8263 47.1431 25.4328 46.9837 26.5204C46.8243 27.608 45.9524 28.208 45.6617 28.3955C45.3711 28.5737 45.2773 28.6393 45.3054 28.7706C45.3429 28.9675 45.4742 28.9581 45.7273 28.9206C46.0742 28.8643 47.9213 28.0299 47.9963 26.0235C48.1088 23.4451 45.6617 20.6324 41.3207 20.6605ZM9.14289 31.5083C7.76465 33.0178 5.82385 33.5898 4.99878 33.1022C4.10808 32.5865 4.45498 30.3645 6.15201 28.7612C7.18335 27.7861 8.52409 26.886 9.40541 26.3329C9.60231 26.211 9.90233 26.0328 10.2586 25.8172C10.3149 25.7797 10.3524 25.7609 10.3524 25.7609C10.418 25.7234 10.493 25.6766 10.568 25.6297C11.1962 27.9174 10.5961 29.9238 9.14289 31.5083ZM19.2219 24.6546C18.7437 25.8266 17.7311 28.8362 17.1217 28.6674C16.5967 28.5268 16.2779 26.2485 17.0186 23.9983C17.3936 22.8638 18.1906 21.5137 18.6593 20.9887C19.4188 20.1448 20.2439 19.8636 20.4501 20.2105C20.6939 20.6605 19.5219 23.9233 19.2219 24.6546ZM27.5382 28.6299C27.332 28.7331 27.1445 28.8081 27.0601 28.7518C26.9945 28.7143 27.1445 28.5737 27.1445 28.5737C27.1445 28.5737 28.1852 27.458 28.5977 26.9423C28.8321 26.6423 29.1134 26.2954 29.4134 25.9016V26.0141C29.4134 27.3642 28.1195 28.2643 27.5382 28.6299ZM33.9513 27.1673C33.8013 27.0548 33.82 26.7079 34.3263 25.6203C34.5232 25.189 34.9733 24.4671 35.7515 23.7826C35.8452 24.0639 35.9015 24.3358 35.8921 24.589C35.8827 26.2766 34.6826 26.9048 33.9513 27.1673Z" fill="#CF649A"/>
    </svg>
    