<svg width="48" height="29" viewBox="0 0 48 29" fill="none" xmlns="http://www.w3.org/2000/svg">
    <path fill-rule="evenodd" clip-rule="evenodd" d="M24.0005 0C17.5999 0 13.6006 3.181 11.9998 9.543C14.4001 6.362 17.2002 5.16936 20.4 5.96414C22.2256 6.41749 23.5311 7.73429 24.9749 9.19217C27.3282 11.5662 30.0521 14.3136 36.0002 14.3136C42.3999 14.3136 46.4001 11.1326 48 4.7715C45.6006 7.9525 42.8005 9.14514 39.6007 8.34942C37.7741 7.89607 36.4686 6.57927 35.0249 5.12233C32.6716 2.74646 29.9486 0 24.0005 0ZM11.9998 14.3136C5.60014 14.3136 1.59991 17.4946 0 23.8566C2.40033 20.6756 5.2004 19.4829 8.39927 20.2777C10.2259 20.7311 11.5314 22.0479 12.9751 23.5057C15.3284 25.8797 18.0514 28.6271 24.0005 28.6271C30.4001 28.6271 34.4003 25.4471 36.0002 19.0851C33.5999 22.2661 30.7998 23.4587 27.6 22.6639C25.7744 22.2096 24.4689 20.8928 23.0251 19.4359C20.6718 17.0619 17.9479 14.3136 11.9998 14.3136Z" fill="#38BDF8"/>
    </svg>
    